<svg width="241" height="220" viewBox="0 0 241 220" fill="none" xmlns="http://www.w3.org/2000/svg">
<path d="M39.4636 73.7333C-16.5042 119.565 -0.113671 172.154 15.0776 192.719C33.7335 206.073 74.2436 229.416 87.0362 215.955C103.027 199.129 168.589 230.778 210.965 204.337C253.341 177.896 244.945 163.073 218.161 91.7614C191.376 20.4501 176.985 55.7052 131.411 24.0557C85.8369 -7.59366 109.423 16.4439 39.4636 73.7333Z" fill="url(#paint0_linear_33_649)"/>
<path d="M148.4 108.452C151.676 109.31 159.048 110.741 159.048 117.897C159.048 125.052 146.66 162.788 154.85 170.802C163.04 178.816 170.036 178.339 176.043 173.759C180.848 170.096 178.5 155.172 178.5 151.452" stroke="black" stroke-width="0.4"/>
<path d="M79.411 137.385V177.771H107.704V137.385C107.704 137.095 107.611 136.812 107.439 136.578C107.267 136.344 107.024 136.172 106.747 136.086C106.616 136.043 106.479 136.022 106.341 136.023H80.7774C80.5982 136.023 80.4207 136.058 80.255 136.126C80.0894 136.194 79.9388 136.295 79.8119 136.421C79.685 136.548 79.5842 136.698 79.5155 136.863C79.4467 137.029 79.4112 137.206 79.411 137.385ZM90.4524 151.262C90.4598 150.466 90.7813 149.705 91.3469 149.144C91.9125 148.584 92.6765 148.27 93.4727 148.27C94.2689 148.27 95.0329 148.584 95.5985 149.144C96.1641 149.705 96.4855 150.466 96.4929 151.262V155.948C96.4888 156.746 96.1688 157.511 95.6029 158.074C95.0369 158.637 94.271 158.953 93.4727 158.953C92.6743 158.953 91.9084 158.637 91.3425 158.074C90.7765 157.511 90.4565 156.746 90.4524 155.948V151.262Z" fill="#5F607E"/>
<path d="M34.9029 76.54V150.278C34.9037 151.218 35.2773 152.119 35.9417 152.783C36.6062 153.448 37.5072 153.821 38.4469 153.822H147.719C148.659 153.821 149.56 153.448 150.224 152.783C150.888 152.119 151.262 151.218 151.263 150.278V76.54C151.261 75.6012 150.886 74.7015 150.222 74.0379C149.558 73.3744 148.658 73.0012 147.719 73H38.4469C37.508 73.0012 36.6079 73.3744 35.9436 74.0379C35.2794 74.7015 34.9052 75.6012 34.9029 76.54Z" fill="#5F607E"/>
<path d="M37.4664 77.457V149.368C37.4673 149.87 37.6671 150.351 38.0221 150.706C38.3771 151.061 38.8584 151.261 39.3604 151.262H146.809C147.311 151.261 147.793 151.061 148.148 150.706C148.503 150.351 148.702 149.87 148.703 149.368V77.457C148.703 76.9543 148.504 76.4722 148.149 76.1164C147.794 75.7606 147.312 75.5601 146.809 75.559H39.3604C38.8578 75.5601 38.376 75.7606 38.021 76.1164C37.6659 76.4722 37.4664 76.9543 37.4664 77.457Z" fill="white"/>
<path d="M59.3757 182.056C59.4851 182.193 59.6241 182.304 59.7823 182.379C59.9406 182.455 60.1139 182.494 60.2893 182.493H124.214C124.389 182.493 124.562 182.454 124.72 182.378C124.877 182.303 125.016 182.194 125.126 182.058C125.237 181.922 125.315 181.763 125.356 181.593C125.397 181.424 125.4 181.247 125.364 181.075L124.372 176.362C124.331 176.17 124.242 175.991 124.114 175.842C123.986 175.692 123.823 175.578 123.639 175.508C123.507 175.455 123.365 175.429 123.222 175.429H61.2777C61.1348 175.429 60.9932 175.455 60.8603 175.508C60.6766 175.578 60.5134 175.692 60.3854 175.842C60.2575 175.991 60.169 176.17 60.1278 176.362L59.1355 181.075C59.1002 181.246 59.1035 181.423 59.145 181.593C59.1866 181.762 59.2654 181.921 59.3757 182.056Z" fill="#5F607E"/>
<path d="M44.7597 85.4665H145.299C145.404 85.4642 145.503 85.4211 145.576 85.3464C145.649 85.2716 145.69 85.1713 145.69 85.0667C145.69 84.9622 145.649 84.8618 145.576 84.7871C145.503 84.7123 145.404 84.6692 145.299 84.6669H44.7597C44.6552 84.6692 44.5557 84.7123 44.4826 84.7871C44.4095 84.8618 44.3686 84.9622 44.3686 85.0667C44.3686 85.1713 44.4095 85.2716 44.4826 85.3464C44.5557 85.4211 44.6552 85.4642 44.7597 85.4665Z" fill="#EFEEFF"/>
<path d="M138.455 82.6249C139.749 82.6249 140.798 81.5525 140.798 80.2296C140.798 78.9067 139.749 77.8343 138.455 77.8343C137.161 77.8343 136.112 78.9067 136.112 80.2296C136.112 81.5525 137.161 82.6249 138.455 82.6249Z" fill="#FF6084"/>
<path d="M130.361 82.6249C131.655 82.6249 132.704 81.5525 132.704 80.2296C132.704 78.9067 131.655 77.8343 130.361 77.8343C129.067 77.8343 128.018 78.9067 128.018 80.2296C128.018 81.5525 129.067 82.6249 130.361 82.6249Z" fill="#FF9C37"/>
<path d="M122.266 82.6249C123.56 82.6249 124.61 81.5525 124.61 80.2296C124.61 78.9067 123.56 77.8343 122.266 77.8343C120.972 77.8343 119.923 78.9067 119.923 80.2296C119.923 81.5525 120.972 82.6249 122.266 82.6249Z" fill="#23C37D"/>
<path d="M49.2048 78.864C49.2045 78.9207 49.2154 78.9768 49.2368 79.0292C49.2583 79.0816 49.2898 79.1293 49.3297 79.1695C49.3695 79.2097 49.4169 79.2417 49.4691 79.2636C49.5214 79.2855 49.5774 79.2969 49.634 79.2972H55.3831C55.4968 79.2945 55.6049 79.2475 55.6843 79.1662C55.7637 79.0849 55.8082 78.9757 55.8082 78.8621C55.8082 78.7484 55.7637 78.6392 55.6843 78.5579C55.6049 78.4766 55.4968 78.4296 55.3831 78.4269H49.634C49.5193 78.4283 49.4097 78.4751 49.3293 78.557C49.2489 78.6389 49.2041 78.7493 49.2048 78.864Z" fill="#F6F5FE"/>
<path d="M49.2048 80.4979C49.2045 80.5545 49.2154 80.6106 49.2368 80.663C49.2583 80.7154 49.2898 80.7631 49.3297 80.8034C49.3695 80.8436 49.4169 80.8756 49.4691 80.8975C49.5214 80.9194 49.5774 80.9308 49.634 80.931H55.3831C55.4968 80.9285 55.6051 80.8815 55.6846 80.8002C55.7642 80.7189 55.8087 80.6096 55.8087 80.4959C55.8087 80.3821 55.7642 80.2729 55.6846 80.1916C55.6051 80.1102 55.4968 80.0633 55.3831 80.0608H49.634C49.5193 80.0622 49.4097 80.1089 49.3293 80.1908C49.2489 80.2727 49.2041 80.3831 49.2048 80.4979Z" fill="#F6F5FE"/>
<path d="M49.2048 82.1291C49.2041 82.2439 49.2489 82.3543 49.3293 82.4362C49.4097 82.5181 49.5193 82.5648 49.634 82.5662H55.3831C55.4968 82.5635 55.6049 82.5165 55.6843 82.4352C55.7637 82.3539 55.8082 82.2447 55.8082 82.1311C55.8082 82.0174 55.7637 81.9082 55.6843 81.8269C55.6049 81.7456 55.4968 81.6986 55.3831 81.6959H49.634C49.5774 81.6962 49.5214 81.7076 49.4691 81.7295C49.4169 81.7514 49.3695 81.7834 49.3297 81.8236C49.2898 81.8638 49.2583 81.9115 49.2368 81.9639C49.2154 82.0163 49.2045 82.0725 49.2048 82.1291Z" fill="#F6F5FE"/>
<path d="M50.9813 94.7573H48.9155C48.2892 94.7573 47.7815 95.265 47.7815 95.8914C47.7815 96.5177 48.2892 97.0254 48.9155 97.0254H50.9813C51.6076 97.0254 52.1154 96.5177 52.1154 95.8914C52.1154 95.265 51.6076 94.7573 50.9813 94.7573Z" fill="#EFEEFF"/>
<path d="M81.3018 94.7573H79.236C78.6096 94.7573 78.1019 95.265 78.1019 95.8914C78.1019 96.5177 78.6096 97.0254 79.236 97.0254H81.3018C81.9281 97.0254 82.4358 96.5177 82.4358 95.8914C82.4358 95.265 81.9281 94.7573 81.3018 94.7573Z" fill="#EFEEFF"/>
<path d="M68.1814 94.5684H55.3421C54.7158 94.5684 54.2081 95.0761 54.2081 95.7024C54.2081 96.3287 54.7158 96.8365 55.3421 96.8365H68.1814C68.8077 96.8365 69.3155 96.3287 69.3155 95.7024C69.3155 95.0761 68.8077 94.5684 68.1814 94.5684Z" fill="#EFEEFF"/>
<path d="M99.6832 94.5684H86.8439C86.2176 94.5684 85.7099 95.0761 85.7099 95.7024C85.7099 96.3287 86.2176 96.8365 86.8439 96.8365H99.6832C100.31 96.8365 100.817 96.3287 100.817 95.7024C100.817 95.0761 100.31 94.5684 99.6832 94.5684Z" fill="#EFEEFF"/>
<path d="M57.2817 99.8763H55.2159C54.5896 99.8763 54.0819 100.384 54.0819 101.01C54.0819 101.637 54.5896 102.144 55.2159 102.144H57.2817C57.908 102.144 58.4158 101.637 58.4158 101.01C58.4158 100.384 57.908 99.8763 57.2817 99.8763Z" fill="#EFEEFF"/>
<path d="M80.908 99.8763H78.8422C78.2159 99.8763 77.7082 100.384 77.7082 101.01C77.7082 101.637 78.2159 102.144 78.8422 102.144H80.908C81.5344 102.144 82.0421 101.637 82.0421 101.01C82.0421 100.384 81.5344 99.8763 80.908 99.8763Z" fill="#EFEEFF"/>
<path d="M87.6022 99.8763H85.5364C84.91 99.8763 84.4023 100.384 84.4023 101.01C84.4023 101.637 84.91 102.144 85.5364 102.144H87.6022C88.2285 102.144 88.7362 101.637 88.7362 101.01C88.7362 100.384 88.2285 99.8763 87.6022 99.8763Z" fill="#EFEEFF"/>
<path d="M74.4815 99.6878H61.6422C61.0159 99.6878 60.5082 100.195 60.5082 100.822C60.5082 101.448 61.0159 101.956 61.6422 101.956H74.4815C75.1078 101.956 75.6156 101.448 75.6156 100.822C75.6156 100.195 75.1078 99.6878 74.4815 99.6878Z" fill="#EFEEFF"/>
<path d="M105.984 99.6878H93.1443C92.518 99.6878 92.0102 100.195 92.0102 100.822C92.0102 101.448 92.518 101.956 93.1443 101.956H105.984C106.61 101.956 107.118 101.448 107.118 100.822C107.118 100.195 106.61 99.6878 105.984 99.6878Z" fill="#EFEEFF"/>
<path d="M87.2085 104.995H85.1427C84.5164 104.995 84.0086 105.502 84.0086 106.129C84.0086 106.755 84.5164 107.263 85.1427 107.263H87.2085C87.8348 107.263 88.3425 106.755 88.3425 106.129C88.3425 105.502 87.8348 104.995 87.2085 104.995Z" fill="#EFEEFF"/>
<path d="M93.9026 104.995H91.8368C91.2105 104.995 90.7028 105.502 90.7028 106.129C90.7028 106.755 91.2105 107.263 91.8368 107.263H93.9026C94.5289 107.263 95.0367 106.755 95.0367 106.129C95.0367 105.502 94.5289 104.995 93.9026 104.995Z" fill="#EFEEFF"/>
<path d="M80.7819 104.806H67.9426C67.3163 104.806 66.8086 105.314 66.8086 105.94C66.8086 106.566 67.3163 107.074 67.9426 107.074H80.7819C81.4082 107.074 81.916 106.566 81.916 105.94C81.916 105.314 81.4082 104.806 80.7819 104.806Z" fill="#EFEEFF"/>
<path d="M112.284 104.806H99.4448C98.8184 104.806 98.3107 105.314 98.3107 105.94C98.3107 106.566 98.8184 107.074 99.4448 107.074H112.284C112.91 107.074 113.418 106.566 113.418 105.94C113.418 105.314 112.91 104.806 112.284 104.806Z" fill="#EFEEFF"/>
<path d="M69.8826 110.114H67.8168C67.1904 110.114 66.6827 110.622 66.6827 111.248C66.6827 111.875 67.1904 112.382 67.8168 112.382H69.8826C70.5089 112.382 71.0166 111.875 71.0166 111.248C71.0166 110.622 70.5089 110.114 69.8826 110.114Z" fill="#EFEEFF"/>
<path d="M93.5089 110.114H91.4431C90.8168 110.114 90.3091 110.622 90.3091 111.248C90.3091 111.875 90.8168 112.382 91.4431 112.382H93.5089C94.1353 112.382 94.643 111.875 94.643 111.248C94.643 110.622 94.1353 110.114 93.5089 110.114Z" fill="#EFEEFF"/>
<path d="M100.203 110.114H98.1372C97.5109 110.114 97.0031 110.622 97.0031 111.248C97.0031 111.875 97.5109 112.382 98.1372 112.382H100.203C100.829 112.382 101.337 111.875 101.337 111.248C101.337 110.622 100.829 110.114 100.203 110.114Z" fill="#EFEEFF"/>
<path d="M87.0823 109.925H74.2431C73.6168 109.925 73.109 110.433 73.109 111.059C73.109 111.686 73.6168 112.193 74.2431 112.193H87.0823C87.7087 112.193 88.2164 111.686 88.2164 111.059C88.2164 110.433 87.7087 109.925 87.0823 109.925Z" fill="#EFEEFF"/>
<path d="M74.6077 130.469H72.5419C71.9156 130.469 71.4078 130.977 71.4078 131.603C71.4078 132.23 71.9156 132.737 72.5419 132.737H74.6077C75.234 132.737 75.7417 132.23 75.7417 131.603C75.7417 130.977 75.234 130.469 74.6077 130.469Z" fill="#EFEEFF"/>
<path d="M81.3018 130.469H79.236C78.6096 130.469 78.1019 130.977 78.1019 131.603C78.1019 132.23 78.6096 132.737 79.236 132.737H81.3018C81.9281 132.737 82.4358 132.23 82.4358 131.603C82.4358 130.977 81.9281 130.469 81.3018 130.469Z" fill="#EFEEFF"/>
<path d="M99.6832 130.658H86.8439C86.2176 130.658 85.7099 131.166 85.7099 131.792C85.7099 132.419 86.2176 132.926 86.8439 132.926H99.6832C100.31 132.926 100.817 132.419 100.817 131.792C100.817 131.166 100.31 130.658 99.6832 130.658Z" fill="#EFEEFF"/>
<path d="M68.1814 130.658H55.3421C54.7158 130.658 54.2081 131.166 54.2081 131.792C54.2081 132.419 54.7158 132.926 55.3421 132.926H68.1814C68.8077 132.926 69.3155 132.419 69.3155 131.792C69.3155 131.166 68.8077 130.658 68.1814 130.658Z" fill="#EFEEFF"/>
<path d="M57.2817 125.35H55.2159C54.5896 125.35 54.0819 125.858 54.0819 126.484C54.0819 127.11 54.5896 127.618 55.2159 127.618H57.2817C57.908 127.618 58.4158 127.11 58.4158 126.484C58.4158 125.858 57.908 125.35 57.2817 125.35Z" fill="#EFEEFF"/>
<path d="M80.908 125.35H78.8422C78.2159 125.35 77.7082 125.858 77.7082 126.484C77.7082 127.11 78.2159 127.618 78.8422 127.618H80.908C81.5344 127.618 82.0421 127.11 82.0421 126.484C82.0421 125.858 81.5344 125.35 80.908 125.35Z" fill="#EFEEFF"/>
<path d="M87.6022 125.35H85.5364C84.91 125.35 84.4023 125.858 84.4023 126.484C84.4023 127.11 84.91 127.618 85.5364 127.618H87.6022C88.2285 127.618 88.7362 127.11 88.7362 126.484C88.7362 125.858 88.2285 125.35 87.6022 125.35Z" fill="#EFEEFF"/>
<path d="M74.4815 125.54H61.6422C61.0159 125.54 60.5082 126.048 60.5082 126.674C60.5082 127.301 61.0159 127.808 61.6422 127.808H74.4815C75.1078 127.808 75.6156 127.301 75.6156 126.674C75.6156 126.048 75.1078 125.54 74.4815 125.54Z" fill="#EFEEFF"/>
<path d="M63.5821 120.232H61.5163C60.89 120.232 60.3823 120.739 60.3823 121.366C60.3823 121.992 60.89 122.5 61.5163 122.5H63.5821C64.2085 122.5 64.7162 121.992 64.7162 121.366C64.7162 120.739 64.2085 120.232 63.5821 120.232Z" fill="#EFEEFF"/>
<path d="M87.2085 120.232H85.1427C84.5164 120.232 84.0086 120.739 84.0086 121.366C84.0086 121.992 84.5164 122.5 85.1427 122.5H87.2085C87.8348 122.5 88.3425 121.992 88.3425 121.366C88.3425 120.739 87.8348 120.232 87.2085 120.232Z" fill="#EFEEFF"/>
<path d="M93.9026 120.232H91.8368C91.2105 120.232 90.7028 120.739 90.7028 121.366C90.7028 121.992 91.2105 122.5 91.8368 122.5H93.9026C94.5289 122.5 95.0367 121.992 95.0367 121.366C95.0367 120.739 94.5289 120.232 93.9026 120.232Z" fill="#EFEEFF"/>
<path d="M80.7819 120.42H67.9426C67.3163 120.42 66.8086 120.928 66.8086 121.555C66.8086 122.181 67.3163 122.689 67.9426 122.689H80.7819C81.4082 122.689 81.916 122.181 81.916 121.555C81.916 120.928 81.4082 120.42 80.7819 120.42Z" fill="#EFEEFF"/>
<path d="M69.8826 115.112H67.8168C67.1904 115.112 66.6827 115.62 66.6827 116.246C66.6827 116.873 67.1904 117.38 67.8168 117.38H69.8826C70.5089 117.38 71.0166 116.873 71.0166 116.246C71.0166 115.62 70.5089 115.112 69.8826 115.112Z" fill="#EFEEFF"/>
<path d="M93.5089 115.112H91.4431C90.8168 115.112 90.3091 115.62 90.3091 116.246C90.3091 116.873 90.8168 117.38 91.4431 117.38H93.5089C94.1353 117.38 94.643 116.873 94.643 116.246C94.643 115.62 94.1353 115.112 93.5089 115.112Z" fill="#EFEEFF"/>
<path d="M100.203 115.112H98.1372C97.5109 115.112 97.0031 115.62 97.0031 116.246C97.0031 116.873 97.5109 117.38 98.1372 117.38H100.203C100.829 117.38 101.337 116.873 101.337 116.246C101.337 115.62 100.829 115.112 100.203 115.112Z" fill="#EFEEFF"/>
<path d="M87.0823 115.302H74.2431C73.6168 115.302 73.109 115.809 73.109 116.436C73.109 117.062 73.6168 117.57 74.2431 117.57H87.0823C87.7087 117.57 88.2164 117.062 88.2164 116.436C88.2164 115.809 87.7087 115.302 87.0823 115.302Z" fill="#EFEEFF"/>
<path opacity="0.2" d="M37.0125 169.9C36.9514 168.879 36.883 167.825 36.8033 166.727C40.7962 156.756 147.938 174.409 149.745 185.97C149.74 187.03 149.695 188.059 149.619 189.063C145.242 177.652 43.4557 160.874 37.0125 169.9Z" fill="#5F607E"/>
<path d="M186.866 118.584V112.166C186.866 111.181 186.474 110.236 185.778 109.54C185.081 108.843 184.136 108.452 183.151 108.452H169.554C169.066 108.452 168.583 108.548 168.132 108.734C167.681 108.921 167.272 109.195 166.927 109.54C166.582 109.885 166.308 110.294 166.122 110.745C165.935 111.195 165.839 111.678 165.839 112.166V116.429H165.6V117.931H165.839V119.533H165.6V121.835H165.839V122.837H165.6V125.14H165.839V147.376C165.839 147.864 165.935 148.347 166.122 148.798C166.308 149.249 166.582 149.658 166.927 150.003C167.272 150.348 167.681 150.622 168.132 150.808C168.583 150.995 169.066 151.091 169.554 151.091H183.151C183.639 151.091 184.122 150.995 184.573 150.808C185.023 150.622 185.433 150.348 185.778 150.003C186.123 149.658 186.396 149.249 186.583 148.798C186.77 148.347 186.866 147.864 186.866 147.376V123.153H187.1V118.584H186.866Z" fill="#5F607E"/>
<path d="M183.301 109.418H181.526C181.608 109.619 181.639 109.836 181.617 110.051C181.595 110.266 181.52 110.472 181.4 110.651C181.279 110.831 181.116 110.978 180.926 111.079C180.735 111.181 180.522 111.234 180.306 111.234H172.516C172.3 111.234 172.087 111.181 171.896 111.079C171.706 110.978 171.543 110.831 171.422 110.651C171.302 110.472 171.227 110.266 171.205 110.051C171.183 109.836 171.214 109.619 171.296 109.418H169.638C168.902 109.418 168.197 109.711 167.677 110.231C167.156 110.751 166.864 111.457 166.864 112.192V147.351C166.864 147.715 166.936 148.076 167.075 148.412C167.215 148.749 167.419 149.055 167.677 149.312C167.934 149.57 168.24 149.774 168.577 149.914C168.913 150.053 169.274 150.125 169.638 150.125H183.301C184.037 150.125 184.742 149.833 185.263 149.312C185.783 148.792 186.075 148.087 186.075 147.351V112.192C186.075 111.828 186.003 111.467 185.864 111.131C185.725 110.794 185.52 110.489 185.263 110.231C185.005 109.973 184.699 109.769 184.363 109.63C184.026 109.49 183.665 109.418 183.301 109.418Z" fill="white"/>
<path d="M183.645 121.655H169.294C169.194 121.654 169.098 121.615 169.028 121.544C168.957 121.473 168.917 121.377 168.917 121.277V115.455C168.917 115.355 168.957 115.259 169.028 115.188C169.098 115.117 169.194 115.077 169.294 115.077H183.645C183.745 115.077 183.841 115.117 183.911 115.188C183.982 115.259 184.022 115.355 184.022 115.455V121.277C184.022 121.377 183.982 121.473 183.911 121.544C183.841 121.615 183.745 121.654 183.645 121.655Z" fill="#5F607E"/>
<path d="M182.279 124.409H170.661C170.551 124.409 170.445 124.366 170.368 124.288C170.29 124.21 170.246 124.104 170.246 123.994C170.246 123.884 170.29 123.779 170.368 123.701C170.445 123.623 170.551 123.579 170.661 123.579H182.279C182.389 123.579 182.494 123.623 182.572 123.701C182.65 123.779 182.694 123.884 182.694 123.994C182.694 124.104 182.65 124.21 182.572 124.288C182.494 124.366 182.389 124.409 182.279 124.409Z" fill="#EFEEFF"/>
<path d="M182.279 126.521H170.661C170.541 126.521 170.426 126.473 170.341 126.388C170.256 126.304 170.208 126.188 170.208 126.068C170.208 125.948 170.256 125.833 170.341 125.748C170.426 125.663 170.541 125.616 170.661 125.616H182.279C182.399 125.616 182.514 125.663 182.599 125.748C182.683 125.833 182.731 125.948 182.731 126.068C182.731 126.188 182.683 126.304 182.599 126.388C182.514 126.473 182.399 126.521 182.279 126.521Z" fill="#E4E4E4"/>
<path d="M182.279 128.597H170.661C170.541 128.597 170.426 128.549 170.341 128.464C170.256 128.379 170.208 128.264 170.208 128.144C170.208 128.024 170.256 127.909 170.341 127.824C170.426 127.739 170.541 127.691 170.661 127.691H182.279C182.399 127.691 182.514 127.739 182.599 127.824C182.683 127.909 182.731 128.024 182.731 128.144C182.731 128.264 182.683 128.379 182.599 128.464C182.514 128.549 182.399 128.597 182.279 128.597Z" fill="#E4E4E4"/>
<path d="M182.279 141.874H170.661C170.541 141.874 170.426 141.827 170.341 141.742C170.256 141.657 170.208 141.542 170.208 141.422C170.208 141.302 170.256 141.186 170.341 141.102C170.426 141.017 170.541 140.969 170.661 140.969H182.279C182.399 140.969 182.514 141.017 182.599 141.102C182.683 141.186 182.731 141.302 182.731 141.422C182.731 141.542 182.683 141.657 182.599 141.742C182.514 141.827 182.399 141.874 182.279 141.874Z" fill="#E4E4E4"/>
<path d="M182.279 143.948H170.661C170.541 143.948 170.426 143.901 170.341 143.816C170.256 143.731 170.208 143.616 170.208 143.496C170.208 143.376 170.256 143.261 170.341 143.176C170.426 143.091 170.541 143.043 170.661 143.043H182.279C182.399 143.043 182.514 143.091 182.599 143.176C182.683 143.261 182.731 143.376 182.731 143.496C182.731 143.616 182.683 143.731 182.599 143.816C182.514 143.901 182.399 143.948 182.279 143.948Z" fill="#E4E4E4"/>
<path d="M182.279 146.024H170.661C170.541 146.024 170.426 145.976 170.341 145.892C170.256 145.807 170.208 145.692 170.208 145.572C170.208 145.451 170.256 145.336 170.341 145.251C170.426 145.167 170.541 145.119 170.661 145.119H182.279C182.399 145.119 182.514 145.167 182.599 145.251C182.683 145.336 182.731 145.451 182.731 145.572C182.731 145.692 182.683 145.807 182.599 145.892C182.514 145.976 182.399 146.024 182.279 146.024Z" fill="#E4E4E4"/>
<path d="M185.202 121.851L183.905 123.798C183.874 123.844 183.832 123.883 183.783 123.909C183.733 123.935 183.678 123.949 183.622 123.949C183.555 123.949 183.49 123.929 183.435 123.892C183.379 123.855 183.336 123.802 183.31 123.741C183.301 123.72 183.294 123.698 183.29 123.676C183.272 123.588 183.29 123.496 183.34 123.421L184.637 121.475C184.662 121.438 184.694 121.406 184.731 121.381C184.768 121.356 184.809 121.339 184.853 121.33C184.897 121.322 184.942 121.321 184.985 121.33C185.029 121.339 185.071 121.356 185.108 121.381C185.145 121.405 185.177 121.437 185.202 121.474C185.226 121.511 185.244 121.553 185.252 121.596C185.261 121.64 185.261 121.685 185.253 121.729C185.244 121.773 185.227 121.814 185.202 121.851Z" fill="#6C63FF"/>
<path d="M184.01 123.64L183.748 124.032L183.283 124.441C183.253 124.468 183.214 124.484 183.173 124.487C183.133 124.49 183.092 124.479 183.058 124.456C183.024 124.434 182.999 124.401 182.986 124.362C182.973 124.323 182.973 124.282 182.986 124.243L183.189 123.648L183.445 123.264L184.01 123.64Z" fill="#5F607E"/>
<path d="M185.259 120.831L184.61 121.404C184.588 121.422 184.572 121.446 184.561 121.472C184.55 121.498 184.545 121.527 184.547 121.555C184.549 121.583 184.558 121.611 184.572 121.635C184.586 121.66 184.606 121.681 184.629 121.696L184.752 121.778L184.397 122.312C184.391 122.32 184.387 122.329 184.385 122.339C184.384 122.349 184.384 122.359 184.385 122.369C184.387 122.378 184.391 122.388 184.397 122.396C184.402 122.404 184.409 122.411 184.418 122.417C184.426 122.422 184.435 122.426 184.445 122.428C184.455 122.43 184.465 122.43 184.474 122.428C184.484 122.426 184.493 122.422 184.501 122.416C184.51 122.411 184.517 122.404 184.522 122.396L184.878 121.862L185.001 121.944C185.042 121.971 185.091 121.981 185.139 121.971C185.187 121.962 185.23 121.934 185.257 121.893C185.266 121.879 185.273 121.865 185.279 121.849L185.557 121.029C185.57 120.99 185.57 120.949 185.557 120.91C185.544 120.871 185.518 120.838 185.484 120.816C185.45 120.793 185.41 120.782 185.369 120.785C185.329 120.788 185.29 120.804 185.259 120.831Z" fill="#5F607E"/>
<path d="M176.979 110.076H174.942C174.902 110.076 174.863 110.06 174.835 110.031C174.807 110.003 174.791 109.965 174.791 109.925C174.791 109.885 174.807 109.846 174.835 109.818C174.863 109.79 174.902 109.774 174.942 109.774H176.979C177.019 109.774 177.057 109.79 177.085 109.818C177.114 109.846 177.13 109.885 177.13 109.925C177.13 109.965 177.114 110.003 177.085 110.031C177.057 110.06 177.019 110.076 176.979 110.076Z" fill="white"/>
<path d="M177.997 110.076C178.08 110.076 178.148 110.008 178.148 109.925C178.148 109.841 178.08 109.774 177.997 109.774C177.914 109.774 177.846 109.841 177.846 109.925C177.846 110.008 177.914 110.076 177.997 110.076Z" fill="white"/>
<path d="M179.377 136.145C179.407 136.137 179.435 136.125 179.461 136.108L182.674 134.005C182.712 133.98 182.744 133.945 182.766 133.904C182.788 133.863 182.8 133.818 182.8 133.771C182.8 133.725 182.789 133.68 182.766 133.639C182.744 133.598 182.713 133.563 182.674 133.538L179.335 131.351C179.304 131.331 179.27 131.317 179.233 131.31C179.197 131.303 179.16 131.303 179.124 131.31C179.088 131.318 179.054 131.332 179.024 131.353C178.993 131.373 178.967 131.4 178.947 131.431C178.927 131.461 178.913 131.496 178.906 131.532C178.9 131.568 178.9 131.605 178.907 131.641C178.915 131.677 178.93 131.711 178.95 131.741C178.971 131.772 178.998 131.798 179.029 131.818L182.011 133.771L179.155 135.641C179.1 135.677 179.059 135.731 179.041 135.795C179.022 135.858 179.026 135.926 179.052 135.986C179.079 136.047 179.126 136.096 179.186 136.125C179.245 136.154 179.313 136.161 179.377 136.145Z" fill="#6C63FF"/>
<path d="M173.579 136.38C173.633 136.366 173.681 136.337 173.718 136.296C173.756 136.254 173.779 136.202 173.787 136.147C173.795 136.092 173.785 136.036 173.761 135.986C173.736 135.936 173.698 135.895 173.649 135.867L170.688 134.169L173.55 132.043C173.58 132.022 173.604 131.994 173.623 131.963C173.642 131.931 173.654 131.896 173.66 131.86C173.665 131.824 173.663 131.787 173.654 131.751C173.645 131.716 173.63 131.683 173.608 131.653C173.586 131.624 173.558 131.599 173.527 131.58C173.496 131.561 173.461 131.549 173.424 131.543C173.388 131.538 173.351 131.54 173.316 131.549C173.28 131.558 173.247 131.574 173.217 131.596L170.013 133.976C169.976 134.003 169.946 134.04 169.926 134.082C169.907 134.124 169.898 134.17 169.901 134.216C169.903 134.263 169.917 134.307 169.942 134.347C169.966 134.386 170 134.419 170.04 134.442L173.371 136.352C173.434 136.388 173.509 136.398 173.579 136.38Z" fill="#6C63FF"/>
<path d="M178.691 137.989C178.718 137.982 178.744 137.971 178.767 137.956C178.799 137.937 178.826 137.912 178.848 137.883C178.869 137.853 178.885 137.819 178.894 137.784C178.902 137.748 178.904 137.711 178.898 137.675C178.893 137.639 178.88 137.604 178.861 137.573L174.307 130.085C174.268 130.022 174.206 129.977 174.134 129.96C174.062 129.943 173.987 129.955 173.924 129.993C173.861 130.032 173.815 130.093 173.798 130.165C173.78 130.237 173.792 130.313 173.83 130.376L178.384 137.863C178.415 137.914 178.461 137.954 178.517 137.976C178.572 137.999 178.633 138.003 178.691 137.989Z" fill="#6C63FF"/>
<circle cx="150.5" cy="5" r="4.5" stroke="#EDEDFF"/>
<circle cx="120.5" cy="214" r="4.5" fill="white" stroke="#EDEDFF"/>
<circle cx="52.5" cy="15" r="4.25" fill="white" stroke="#EDEDFF" stroke-width="1.5"/>
<defs>
<linearGradient id="paint0_linear_33_649" x1="85.4372" y1="19.2482" x2="214.153" y2="220.112" gradientUnits="userSpaceOnUse">
<stop stop-color="#F6F5FE"/>
<stop offset="1" stop-color="#F6F5FE" stop-opacity="0"/>
</linearGradient>
</defs>
</svg>
